<svg id="Layer_1" xmlns="http://www.w3.org/2000/svg" xmlns:xlink="http://www.w3.org/1999/xlink" viewBox="0 0 1174.519 293.515">
  <defs>
    <style>
      @keyframes dash {
        to {
          stroke-dashoffset: 0;
        }
      }

      .cls-1, .cls-3, .cls-5, .cls-7, .cls-9, .cls-11, .cls-13, .cls-15, .cls-17, .cls-19 {
        fill: none;
        stroke: #000;
        stroke-miterlimit: 10;
      }

      .cls-19 {
        stroke-dasharray: 1000;
        stroke-dashoffset: 1000;
        animation: dash .6s linear forwards;
      }
	  
	    .cls-17 {
        stroke-dasharray: 1000;
        stroke-dashoffset: 1000;
        animation: dash .6s linear forwards .30s;
      }
	  
	    .cls-15 {
        stroke-dasharray: 1000;
        stroke-dashoffset: 1000;
        animation: dash .6s linear forwards .60s;
      }
	  
	    .cls-13 {
        stroke-dasharray: 1000;
        stroke-dashoffset: 1000;
        animation: dash .6s linear forwards .45s;
      }
	  
	    .cls-11 {
        stroke-dasharray: 1000;
        stroke-dashoffset: 1000;
        animation: dash .6s linear forwards .60s;
      }
	  
	    .cls-9 {
        stroke-dasharray: 1000;
        stroke-dashoffset: 1000;
        animation: dash .6s linear forwards .75s;
      }
	  
	    .cls-7 {
        stroke-dasharray: 1000;
        stroke-dashoffset: 1000;
        animation: dash .6s linear forwards .90s;
      }
	  
	    .cls-5 {
        stroke-dasharray: 1000;
        stroke-dashoffset: 1000;
        animation: dash .6s linear forwards .105s;
      }
	  
	    .cls-3 {
        stroke-dasharray: 1000;
        stroke-dashoffset: 1000;
        animation: dash .6s linear forwards .130s;
      }

      .cls-1 {
        stroke-width: 0px;
      }

      .cls-2 {
        clip-path: url(#clip-path);
      }

      .cls-3 {
        stroke-width: 33px;
      }

      .cls-4 {
        clip-path: url(#clip-path-2);
      }

      .cls-5 {
        stroke-width: 25px;
      }

      .cls-6 {
        clip-path: url(#clip-path-3);
      }

      .cls-7 {
        stroke-width: 25px;
      }

      .cls-8 {
        clip-path: url(#clip-path-4);
      }

      .cls-9 {
        stroke-width: 26px;
      }

      .cls-10 {
        clip-path: url(#clip-path-5);
      }

      .cls-11 {
        stroke-width: 28px;
      }

      .cls-12 {
        clip-path: url(#clip-path-6);
      }

      .cls-13 {
        stroke-width: 27px;
      }

      .cls-14 {
        clip-path: url(#clip-path-7);
      }

      .cls-15 {
        stroke-width: 26px;
      }

      .cls-16 {
        clip-path: url(#clip-path-8);
      }

      .cls-17 {
        stroke-width: 25px;
      }

      .cls-18 {
        clip-path: url(#clip-path-9);
      }

      .cls-19 {
        stroke-width: 29px;
      }
    </style>
    <clipPath id="clip-path" transform="translate(-6.895 -1.853)">
      <path id="s" class="cls-1" d="M1111.477,145.97a34.691,34.691,0,0,1,3.32,14.16q0,14.942-12.5,26.026A42.764,42.764,0,0,1,1073,197.24a27.654,27.654,0,0,1-16.8-5.078q-6.935-5.079-6.933-12.207,0-7.619,9.521-15.43t31.885-18.555l-7.813-12.6q-14.258-22.948-14.257-35.84,0-18.553,21.582-29.883,13.279,5.079,13.281,12.793,0,10.938-16.895,21l11.133,20.508,8.692,15.82q18.651-11.133,28.125-19.092t23.925-24.56l7.813,4.785Q1145.265,127.025,1111.477,145.97Zm-16.6,8.789q-28.712,15.432-28.711,23.926,0,8.007,11.621,8.008a18.144,18.144,0,0,0,13.965-5.811q5.37-5.81,5.371-14.99A30.078,30.078,0,0,0,1094.875,154.759Z"/>
    </clipPath>
    <clipPath id="clip-path-2" transform="translate(-6.895 -1.853)">
      <path id="s-2" data-name="s" class="cls-1" d="M1025.637,145.97a34.691,34.691,0,0,1,3.32,14.16q0,14.942-12.5,26.026a42.763,42.763,0,0,1-29.3,11.084,27.654,27.654,0,0,1-16.8-5.078q-6.935-5.079-6.933-12.207,0-7.619,9.521-15.43t31.885-18.555l-7.812-12.6q-14.259-22.948-14.258-35.84,0-18.553,21.582-29.883,13.28,5.079,13.281,12.793,0,10.938-16.895,21l11.133,20.508,8.692,15.82q18.651-11.133,28.125-19.092t23.925-24.56l7.813,4.785Q1059.425,127.025,1025.637,145.97Zm-16.6,8.789q-28.71,15.432-28.711,23.926,0,8.007,11.621,8.008a18.144,18.144,0,0,0,13.965-5.811q5.37-5.81,5.371-14.99A30.078,30.078,0,0,0,1009.035,154.759Z"/>
    </clipPath>
    <clipPath id="clip-path-3" transform="translate(-6.895 -1.853)">
      <path id="a" class="cls-1" d="M893.02,120.677q-12.516,25.879-30.846,43.994t-31.921,18.116q-10.364,0-16.573-9.229T807.473,149q0-30.565,18.524-53.809t42.868-23.242q14.76,0,31.967,9.179,2.539-9.081,20.7-9.082,1.173,0,3.809.1-5.567,8.5-8.5,23.242l-1.66,8.3a163.589,163.589,0,0,0-2.832,32.422q0,21.387,9.961,21.387,10.546,0,28.857-17.627T987.16,94.994l7.617,5.273q-18.066,32.226-41.308,53.76T913.527,175.56q-21.093,0-21.093-35.156Q892.434,133.08,893.02,120.677Zm4.589-23.34q-20.537-13.378-34.128-13.379-14.769,0-25.524,17.92T827.2,144.408q0,19.727,12.91,19.726,13.981,0,53.491-61.328Q894.089,102.026,897.609,97.337Z"/>
    </clipPath>
    <clipPath id="clip-path-4" transform="translate(-6.895 -1.853)">
      <path id="l" class="cls-1" d="M836.281,100.755q-20.214,38.379-40.625,60.205t-36.132,21.827a22.448,22.448,0,0,1-18.457-8.838q-7.032-8.838-7.032-23.1,0-8.006,2.93-22.656L756.4,30.345a44.4,44.4,0,0,1-6.641.586q-22.463,0-22.461-18.75V9.935a52.718,52.718,0,0,0,26.465,6.641q14.745,0,25.781-7.325L756.887,126.732q-3.028,15.821-3.028,21.777,0,16.5,12.11,16.5,11.718,0,23.584-13.232t38.916-56.4Z"/>
    </clipPath>
    <clipPath id="clip-path-5" transform="translate(-6.895 -1.853)">
      <path id="C" class="cls-1" d="M701.32,140.058A19.36,19.36,0,0,1,703.176,147q0,12.712-21.729,24.835t-44.58,12.123q-25,0-39.5-14.55t-14.5-39.844q0-39.94,26.172-68.652t62.6-28.711q14.842,0,25,5.284T706.789,50.4q0,6.849-8.789,15.067-11.817-23.574-33.5-23.6-23.73.019-41.4,24.631t-17.685,57.47q.018,20.965,10.6,33.191t28.654,12.247Q675.538,169.39,701.32,140.058Z"/>
    </clipPath>
    <clipPath id="clip-path-6" transform="translate(-6.895 -1.853)">
      <path id="n" class="cls-1" d="M457.472,145.287q34.668-73.338,62.305-73.34,21.582,0,21.582,42.969l.195,11.816q0,20.508,2.1,28.369t7.666,7.861q8.4,0,19.092-13.379t34.815-53.808l8.2,4.785q-21.484,40.528-38.477,60.156t-30.469,19.629q-12.4,0-17.432-12.012t-5.029-41.6l-.1-8.4q0-16.014-2.05-22.509t-7.129-6.494q-12.891,0-41.5,51.464-7.032,12.6-9.082,16.211-7.521,13.087-7.52,18.946a8.7,8.7,0,0,0,1.27,4.492,26.034,26.034,0,0,1-9.571,2.344q-9.864,0-9.863-10.938,0-3.125,2.539-28.125l2.149-21.191a207.2,207.2,0,0,0,1.465-20.9q0-10.35-4.688-16.308,2.05-.683,6.836-2.344a30.878,30.878,0,0,1,9.668-2.149q7.617,0,7.617,11.133,0,5.861-1.465,20.117-.293,3.128-.586,5.958Z"/>
    </clipPath>
    <clipPath id="clip-path-7" transform="translate(-6.895 -1.853)">
      <path id="e" class="cls-1" d="M327.785,139.687q0,28.549,24.219,28.549,21,0,46.289-19.974T443.9,95.645l8.3,4.579q-19.142,35.72-49.756,59.14t-58.057,23.423q-17.577,0-27.783-11.329T306.4,140.5q0-28.318,18.506-48.437t44.58-20.117q12.6,0,20.166,6.344t7.568,16.983q0,17.474-21.045,30.944T327.785,139.687Zm.781-9.375q20.409-1.071,35.01-11.687t14.6-24.544q0-12.465-11.132-12.466-13.283,0-24.512,14.219T328.566,130.312Z"/>
    </clipPath>
    <clipPath id="clip-path-8" transform="translate(-6.895 -1.853)">
      <path id="p" class="cls-1" d="M204.444,174.291l-7.128,36.132a110.493,110.493,0,0,0-2.442,21.289,21.569,21.569,0,0,0,2.539,10.45q-9.864,3.222-15.039,3.222-8.107,0-8.1-9.179,0-7.13,3.222-23.34l28.516-143.36a72.6,72.6,0,0,1-14.258,1.758q-8.5,0-12.549-4.053t-6.494-15.087q7.128,4.785,21.68,4.785a93.22,93.22,0,0,0,34.765-6.641l-7.519,37.7q16.6-16.014,34.375-16.015a33.046,33.046,0,0,1,25.879,11.767q10.351,11.771,10.352,29.346,0,27.442-19.043,47.363T227.98,180.345Q213.818,180.345,204.444,174.291Zm3.028-15.137q9.862,11.523,24.219,11.523,17.185,0,29.248-14.453T273,121.068q0-14.942-6.836-24.219T248.39,87.572q-13.674,0-29.688,15.429Z"/>
    </clipPath>
    <clipPath id="clip-path-9" transform="translate(-6.895 -1.853)">
      <path id="O" class="cls-1" d="M77,52.416Q92.122,32.2,116.9,32.2q21.166,0,34.923,15.381T165.577,86.6q0,36.819-29.59,67.09T70.46,183.958q-25.879,0-42.725-17.138T10.89,123.412q0-28.515,19.217-49.121T77,52.416ZM69.531,63.06A45.3,45.3,0,0,0,42.065,81.712Q32,96.166,31.984,117.259,32,140.8,45.665,156.068t34.854,15.293q25.389-.018,44.813-24.033t19.444-55.557q-.019-18.359-9.665-30.849t-23.783-12.51q-14.337.02-24.867,11.68A39.9,39.9,0,0,0,75.929,87.767a42.012,42.012,0,0,0,5.363,20.9q-10.7-1.953-14.28-5.762T63.429,89.427Q63.429,76.83,69.531,63.06Z"/>
    </clipPath>
  </defs>
  <title>logo</title>
  <g>
    <g id="s_group" data-name="s group">
      <g class="cls-2">
        <path id="s_path" data-name="s path" class="cls-3" d="M1107.766,67.65S1082.841,74.908,1081.643,91l-1.2,16.089,11,25.359,12.5,22.314-1,21.827-15,13.5-21.78,2-9.72-9.3s-2.5-3.921,5-12.061l7.5-8.14,22-11.5,25-14.5,20-12.54,34-34.96" transform="translate(-6.895 -1.853)"/>
      </g>
      <path id="s-3" data-name="s" class="cls-1" d="M1111.477,145.97a34.691,34.691,0,0,1,3.32,14.16q0,14.942-12.5,26.026A42.764,42.764,0,0,1,1073,197.24a27.654,27.654,0,0,1-16.8-5.078q-6.935-5.079-6.933-12.207,0-7.619,9.521-15.43t31.885-18.555l-7.813-12.6q-14.258-22.948-14.257-35.84,0-18.553,21.582-29.883,13.279,5.079,13.281,12.793,0,10.938-16.895,21l11.133,20.508,8.692,15.82q18.651-11.133,28.125-19.092t23.925-24.56l7.813,4.785Q1145.265,127.025,1111.477,145.97Zm-16.6,8.789q-28.712,15.432-28.711,23.926,0,8.007,11.621,8.008a18.144,18.144,0,0,0,13.965-5.811q5.37-5.81,5.371-14.99A30.078,30.078,0,0,0,1094.875,154.759Z" transform="translate(-6.895 -1.853)"/>
    </g>
    <g id="s_group-2" data-name="s group">
      <g class="cls-4">
        <path id="s_path-2" data-name="s path" class="cls-5" d="M1021.926,62.586,995.8,91.074s-11.193.512-1.026,19.012l10.167,18.5,12.5,26.173s6,8.327-.5,19.827l-6.5,11.5-19.934,5.5-16.066-4.893V170.726l14.5-11.64,22.337-10.5,37.989-24.54,16.894-15.46,38.28-43.5" transform="translate(-6.895 -1.853)"/>
      </g>
      <path id="s-4" data-name="s" class="cls-1" d="M1025.637,145.97a34.691,34.691,0,0,1,3.32,14.16q0,14.942-12.5,26.026a42.763,42.763,0,0,1-29.3,11.084,27.654,27.654,0,0,1-16.8-5.078q-6.935-5.079-6.933-12.207,0-7.619,9.521-15.43t31.885-18.555l-7.812-12.6q-14.259-22.948-14.258-35.84,0-18.553,21.582-29.883,13.28,5.079,13.281,12.793,0,10.938-16.895,21l11.133,20.508,8.692,15.82q18.651-11.133,28.125-19.092t23.925-24.56l7.813,4.785Q1059.425,127.025,1025.637,145.97Zm-16.6,8.789q-28.71,15.432-28.711,23.926,0,8.007,11.621,8.008a18.144,18.144,0,0,0,13.965-5.811q5.37-5.81,5.371-14.99A30.078,30.078,0,0,0,1009.035,154.759Z" transform="translate(-6.895 -1.853)"/>
    </g>
    <g id="a_group" data-name="a group">
      <g class="cls-6">
        <polyline id="a_path" data-name="a path" class="cls-7" points="915.549 99.234 872.049 79.234 848.549 76.234 831.549 87.734 810.049 135.734 813.549 162.281 823.549 168.873 835.049 168.873 855.509 152.906 878.549 122.553 894.23 100.234 904.049 82.106 894.23 128.234 898.049 157.734 908.049 164.734 933.049 155.234 956.535 132.734 973.429 111.234 1011.049 57.734"/>
      </g>
      <path id="a-2" data-name="a" class="cls-1" d="M893.02,120.677q-12.516,25.879-30.846,43.994t-31.921,18.116q-10.364,0-16.573-9.229T807.473,149q0-30.565,18.524-53.809t42.868-23.242q14.76,0,31.967,9.179,2.539-9.081,20.7-9.082,1.173,0,3.809.1-5.567,8.5-8.5,23.242l-1.66,8.3a163.589,163.589,0,0,0-2.832,32.422q0,21.387,9.961,21.387,10.546,0,28.857-17.627T987.16,94.994l7.617,5.273q-18.066,32.226-41.308,53.76T913.527,175.56q-21.093,0-21.093-35.156Q892.434,133.08,893.02,120.677Zm4.589-23.34q-20.537-13.378-34.128-13.379-14.769,0-25.524,17.92T827.2,144.408q0,19.727,12.91,19.726,13.981,0,53.491-61.328Q894.089,102.026,897.609,97.337Z" transform="translate(-6.895 -1.853)"/>
    </g>
    <g id="l_group" data-name="l group">
      <g class="cls-8">
        <polyline id="l_path" data-name="l path" class="cls-9" points="710.049 14.734 739.549 22.234 761.549 22.234 735.799 140.734 740.549 164.734 749.549 171.734 769.549 168.873 788.549 150.234 817.049 110.234 838.549 70.094"/>
      </g>
      <path id="l-2" data-name="l" class="cls-1" d="M836.281,100.755q-20.214,38.379-40.625,60.205t-36.132,21.827a22.448,22.448,0,0,1-18.457-8.838q-7.032-8.838-7.032-23.1,0-8.006,2.93-22.656L756.4,30.345a44.4,44.4,0,0,1-6.641.586q-22.463,0-22.461-18.75V9.935a52.718,52.718,0,0,0,26.465,6.641q14.745,0,25.781-7.325L756.887,126.732q-3.028,15.821-3.028,21.777,0,16.5,12.11,16.5,11.718,0,23.584-13.232t38.916-56.4Z" transform="translate(-6.895 -1.853)"/>
    </g>
    <g id="C_group" data-name="C group">
      <g class="cls-10">
        <polyline id="C_path" data-name="C path" class="cls-11" points="704.049 60.234 673.049 35.734 647.549 35.734 620.049 47.984 597.049 79.762 587.549 104.11 591.049 142.234 603.049 164.734 627.549 176.234 653.549 171.734 676.049 162.281 704.049 140.734"/>
      </g>
      <path id="C-2" data-name="C" class="cls-1" d="M701.32,140.058A19.36,19.36,0,0,1,703.176,147q0,12.712-21.729,24.835t-44.58,12.123q-25,0-39.5-14.55t-14.5-39.844q0-39.94,26.172-68.652t62.6-28.711q14.842,0,25,5.284T706.789,50.4q0,6.849-8.789,15.067-11.817-23.574-33.5-23.6-23.73.019-41.4,24.631t-17.685,57.47q.018,20.965,10.6,33.191t28.654,12.247Q675.538,169.39,701.32,140.058Z" transform="translate(-6.895 -1.853)"/>
    </g>
    <g id="n_group" data-name="n group">
      <g class="cls-12">
        <polyline id="n_path" data-name="n path" class="cls-13" points="441.049 65.734 441.049 168.824 481.549 98.234 505.049 77.234 520.549 82.106 526.549 111.234 526.549 145.973 529.049 166.234 541.549 168.824 558.049 162.281 579.049 135.734 594.049 110.234 611.549 85.719"/>
      </g>
      <path id="n-2" data-name="n" class="cls-1" d="M457.472,145.287q34.668-73.338,62.305-73.34,21.582,0,21.582,42.969l.195,11.816q0,20.508,2.1,28.369t7.666,7.861q8.4,0,19.092-13.379t34.815-53.808l8.2,4.785q-21.484,40.528-38.477,60.156t-30.469,19.629q-12.4,0-17.432-12.012t-5.029-41.6l-.1-8.4q0-16.014-2.05-22.509t-7.129-6.494q-12.891,0-41.5,51.464-7.032,12.6-9.082,16.211-7.521,13.087-7.52,18.946a8.7,8.7,0,0,0,1.27,4.492,26.034,26.034,0,0,1-9.571,2.344q-9.864,0-9.863-10.938,0-3.125,2.539-28.125l2.149-21.191a207.2,207.2,0,0,0,1.465-20.9q0-10.35-4.688-16.308,2.05-.683,6.836-2.344a30.878,30.878,0,0,1,9.668-2.149q7.617,0,7.617,11.133,0,5.861-1.465,20.117-.293,3.128-.586,5.958Z" transform="translate(-6.895 -1.853)"/>
    </g>
    <g id="e_group" data-name="e group">
      <g class="cls-14">
        <polyline id="e_path" data-name="e path" class="cls-15" points="457.049 70.094 425.049 120.734 401.549 145.973 371.28 168.824 340.549 175.234 318.549 164.734 310.049 133.734 319.049 98.734 340.049 79.762 363.549 74.234 380.049 85.719 377.549 106.227 365.049 117.234 343.049 130.734 316.549 132.734 292.049 124.961"/>
      </g>
      <path id="e-2" data-name="e" class="cls-1" d="M327.785,139.687q0,28.549,24.219,28.549,21,0,46.289-19.974T443.9,95.645l8.3,4.579q-19.142,35.72-49.756,59.14t-58.057,23.423q-17.577,0-27.783-11.329T306.4,140.5q0-28.318,18.506-48.437t44.58-20.117q12.6,0,20.166,6.344t7.568,16.983q0,17.474-21.045,30.944T327.785,139.687Zm.781-9.375q20.409-1.071,35.01-11.687t14.6-24.544q0-12.465-11.132-12.466-13.283,0-24.512,14.219T328.566,130.312Z" transform="translate(-6.895 -1.853)"/>
    </g>
    <g id="p_group" data-name="p group">
      <g class="cls-16">
        <path id="p_path" data-name="p path" class="cls-17" d="M165.577,58.586l26.367,6,22-3-33.5,172,6,17,27.5-152.5,30-18.5,17.5-1,14,12s8,7.5,6.5,23.5l-1.5,16-7.444,21-11.056,12.5-15,10-18,2.5-13.5-4.725-37.5-16.775" transform="translate(-6.895 -1.853)"/>
      </g>
      <path id="p-2" data-name="p" class="cls-1" d="M204.444,174.291l-7.128,36.132a110.493,110.493,0,0,0-2.442,21.289,21.569,21.569,0,0,0,2.539,10.45q-9.864,3.222-15.039,3.222-8.107,0-8.1-9.179,0-7.13,3.222-23.34l28.516-143.36a72.6,72.6,0,0,1-14.258,1.758q-8.5,0-12.549-4.053t-6.494-15.087q7.128,4.785,21.68,4.785a93.22,93.22,0,0,0,34.765-6.641l-7.519,37.7q16.6-16.014,34.375-16.015a33.046,33.046,0,0,1,25.879,11.767q10.351,11.771,10.352,29.346,0,27.442-19.043,47.363T227.98,180.345Q213.818,180.345,204.444,174.291Zm3.028-15.137q9.862,11.523,24.219,11.523,17.185,0,29.248-14.453T273,121.068q0-14.942-6.836-24.219T248.39,87.572q-13.674,0-29.688,15.429Z" transform="translate(-6.895 -1.853)"/>
    </g>
    <g id="O_group" data-name="O group">
      <g class="cls-18">
        <path id="O_path" data-name="O path" class="cls-19" d="M96.938,67.65C56.2,44.543,31.984,83.958,31.984,83.958L20.4,109.886v32.188l16.049,22.06,22.223,13.743H88.234l27.223-13.743,29.319-31.689,13.891-48.487L144.776,50.267,115.457,39.6,88.234,48.412,74.716,67.65,69.778,81.615l3.7,37" transform="translate(-6.895 -1.853)"/>
      </g>
      <path id="O-2" data-name="O" class="cls-1" d="M77,52.416Q92.122,32.2,116.9,32.2q21.166,0,34.923,15.381T165.577,86.6q0,36.819-29.59,67.09T70.46,183.958q-25.879,0-42.725-17.138T10.89,123.412q0-28.515,19.217-49.121T77,52.416ZM69.531,63.06A45.3,45.3,0,0,0,42.065,81.712Q32,96.166,31.984,117.259,32,140.8,45.665,156.068t34.854,15.293q25.389-.018,44.813-24.033t19.444-55.557q-.019-18.359-9.665-30.849t-23.783-12.51q-14.337.02-24.867,11.68A39.9,39.9,0,0,0,75.929,87.767a42.012,42.012,0,0,0,5.363,20.9q-10.7-1.953-14.28-5.762T63.429,89.427Q63.429,76.83,69.531,63.06Z" transform="translate(-6.895 -1.853)"/>
    </g>
  </g>
</svg>
